<?xml version="1.0" encoding="UTF-8"?><svg id="Layer_1" xmlns="http://www.w3.org/2000/svg" viewBox="0 0 100 100.63"><defs><style>.cls-1{stroke-width:0px;}</style></defs><path class="cls-1" d="M78.99,50.31c0-1.41-1.2-2.62-2.69-2.69h-23.62s0-23.62,0-23.62c0-1.41-1.2-2.62-2.69-2.69-1.41,0-2.62,1.2-2.69,2.69v23.62h-23.62c-1.41,0-2.62,1.2-2.69,2.69,0,.71.28,1.41.78,1.91s1.2.78,1.91.78h23.62v23.62c0,.71.28,1.41.78,1.91s1.2.78,1.91.78c1.41,0,2.62-1.2,2.69-2.69v-23.62s23.62,0,23.62,0c1.41,0,2.62-1.2,2.69-2.69Z"/><path class="cls-1" d="M83.59,16.73C65.06-1.8,34.94-1.8,16.41,16.73c-18.53,18.53-18.53,48.65,0,67.18,18.53,18.53,48.65,18.53,67.18,0,18.53-18.53,18.53-48.65,0-67.18ZM20.16,80.15c-16.48-16.48-16.48-43.2,0-59.68s43.2-16.48,59.68,0c16.48,16.48,16.48,43.2,0,59.68-16.48,16.48-43.2,16.48-59.68,0Z"/></svg>