<?xml version="1.0" encoding="UTF-8"?><svg id="Layer_1" xmlns="http://www.w3.org/2000/svg" viewBox="0 0 50 50"><defs><style>.cls-1{fill:#000;stroke-width:0px;}</style></defs><path class="cls-1" d="M25.04,47.7c-12.66,0-22.96-10.3-22.96-22.96S12.38,1.78,25.04,1.78s22.96,10.3,22.96,22.96-10.3,22.96-22.96,22.96ZM25.04,3.58C13.37,3.58,3.88,13.07,3.88,24.74s9.49,21.16,21.16,21.16,21.16-9.49,21.16-21.16S36.7,3.58,25.04,3.58Z"/><path class="cls-1" d="M36.06,25.64H12.56c-.5,0-.9-.4-.9-.9s.4-.9.9-.9h23.5c.5,0,.9.4.9.9s-.4.9-.9.9Z"/><path class="cls-1" d="M29.4,32.67c-.27,0-.53-.12-.71-.34-.31-.39-.24-.96.15-1.27l2.81-2.22,4.51-4.02-7.44-6.43c-.38-.33-.42-.9-.09-1.27.33-.38.9-.42,1.27-.09l8.22,7.1c.2.17.31.42.31.68,0,.26-.11.51-.3.68l-5.31,4.74-2.85,2.25c-.17.13-.36.19-.56.19Z"/></svg>