<?xml version="1.0" encoding="UTF-8"?><svg id="Graph_1" xmlns="http://www.w3.org/2000/svg" viewBox="0 0 589.55 439.17"><defs><style>.cls-1{stroke:#f8aaaa;}.cls-1,.cls-2,.cls-3,.cls-4{fill:none;}.cls-1,.cls-3,.cls-4{stroke-linecap:round;stroke-linejoin:round;stroke-width:5px;}.cls-2{stroke:#aaa9a9;stroke-miterlimit:10;stroke-width:3px;}.cls-3{stroke:#7e7b7c;}.cls-4{stroke:#fb213f;}</style></defs><path id="Grey_line" class="cls-3" d="M71.24,380.71c5.54-22.3,15.26-53.72,33.25-90.06,26.22-52.96,47.49-95.95,100.71-135.76,64.48-48.24,141.53-66.16,202.89-80.43,64.85-15.08,121.6-20.18,160.93-22"/><path id="Light_red_line" class="cls-1" d="M71.24,380.71c22.44-93.76,56.77-162.44,80.36-193.13,25.84-33.62,56.98-56.77,56.98-56.77,12.32-9.16,22.67-15.37,26.24-17.51,55.08-32.93,161.92-55.34,161.92-55.34,42.66-8.92,101.09-18.54,172.29-22.68"/><path id="Bright_red_line" class="cls-4" d="M71.24,380.71c9.2-56.27,34.92-145.59,113.72-219.64,10.03-9.43,26.76-24.99,53.81-42.28,65.07-41.6,134.52-57.84,197.96-72.18,31.99-7.23,76.34-15.69,130.82-21.31"/><path d="M46.1,385.78c-.93-.83-1.07-2.33-1.07-3.65s.14-2.81,1.07-3.63c.42-.37,1-.68,1.83-.68s1.43.3,1.83.68c.92.85,1.07,2.33,1.07,3.63s-.14,2.82-1.07,3.65c-.41.37-1,.68-1.83.68s-1.41-.31-1.83-.68ZM49.36,385.4c.81-.73.85-2.17.85-3.26s-.04-2.52-.85-3.25c-.33-.3-.78-.49-1.43-.49s-1.09.2-1.41.49c-.82.73-.85,2.17-.85,3.25s.04,2.53.85,3.26c.32.29.78.49,1.41.49s1.1-.19,1.43-.49Z"/><path d="M53.37,385.22v1.08h-1.09v-1.08h1.09Z"/><path d="M55.89,385.78c-.93-.83-1.07-2.33-1.07-3.65s.14-2.81,1.07-3.63c.42-.37,1-.68,1.83-.68s1.43.3,1.83.68c.92.85,1.07,2.33,1.07,3.63s-.14,2.82-1.07,3.65c-.41.37-1,.68-1.83.68s-1.41-.31-1.83-.68ZM59.15,385.4c.81-.73.85-2.17.85-3.26s-.04-2.52-.85-3.25c-.33-.3-.78-.49-1.43-.49s-1.09.2-1.41.49c-.82.73-.85,2.17-.85,3.25s.04,2.53.85,3.26c.32.29.78.49,1.41.49s1.1-.19,1.43-.49Z"/><path d="M67.22,398.63c-.93-.83-1.07-2.33-1.07-3.65s.14-2.81,1.07-3.63c.42-.37,1-.68,1.83-.68s1.43.3,1.83.68c.92.85,1.07,2.33,1.07,3.63s-.14,2.82-1.07,3.65c-.41.37-1,.68-1.83.68s-1.41-.31-1.83-.68ZM70.48,398.25c.81-.73.85-2.17.85-3.26s-.04-2.52-.85-3.25c-.33-.3-.78-.49-1.43-.49s-1.09.2-1.41.49c-.82.73-.85,2.17-.85,3.25s.04,2.53.85,3.26c.32.29.78.49,1.41.49s1.1-.19,1.43-.49Z"/><path d="M313.72,395.69h.62c.06,1.18.9,2,2.21,2,1.38,0,2.16-.94,2.16-2.19s-.68-2.22-2.06-2.22c-.77,0-1.52.29-1.93.91h-.73l.35-4.4h4.7v.56h-4.16l-.29,3.24c.47-.59,1.3-.88,2.07-.88,1.77,0,2.68,1.2,2.68,2.78s-.98,2.77-2.78,2.77-2.79-1.12-2.82-2.58Z"/><path d="M563.77,392.66v-.67l2.35-1.62h.56v8.31h-.62v-7.57l-2.29,1.55Z"/><path d="M569.84,398.17c-.93-.83-1.07-2.33-1.07-3.65s.14-2.81,1.07-3.63c.42-.37,1-.68,1.83-.68s1.43.3,1.83.68c.92.85,1.07,2.33,1.07,3.63s-.14,2.82-1.07,3.65c-.41.37-1,.68-1.83.68s-1.41-.31-1.83-.68ZM573.1,397.78c.8-.73.85-2.17.85-3.26s-.04-2.52-.85-3.25c-.33-.3-.78-.49-1.43-.49s-1.09.2-1.41.49c-.82.73-.85,2.17-.85,3.25s.04,2.53.85,3.26c.32.29.78.49,1.41.49s1.1-.19,1.43-.49Z"/><path d="M46.1,305.25c-.93-.83-1.07-2.33-1.07-3.65s.14-2.81,1.07-3.63c.42-.37,1-.68,1.83-.68s1.43.3,1.83.68c.92.85,1.07,2.33,1.07,3.63s-.14,2.82-1.07,3.65c-.41.37-1,.68-1.83.68s-1.41-.31-1.83-.68ZM49.36,304.87c.81-.73.85-2.17.85-3.26s-.04-2.52-.85-3.25c-.33-.3-.78-.49-1.43-.49s-1.09.2-1.41.49c-.82.73-.85,2.17-.85,3.25s.04,2.53.85,3.26c.32.29.78.49,1.41.49s1.1-.19,1.43-.49Z"/><path d="M53.37,304.69v1.08h-1.09v-1.08h1.09Z"/><path d="M55.12,303.36h.62c.06,1.18.9,2,2.21,2,1.38,0,2.16-.94,2.16-2.19s-.68-2.22-2.06-2.22c-.77,0-1.52.29-1.93.91h-.73l.35-4.4h4.7v.56h-4.16l-.29,3.24c.47-.59,1.3-.88,2.07-.88,1.77,0,2.68,1.2,2.68,2.78s-.98,2.77-2.78,2.77-2.79-1.12-2.82-2.58Z"/><path d="M45.67,217.68v-.67l2.35-1.62h.56v8.31h-.62v-7.57l-2.29,1.55Z"/><path d="M52.01,222.62v1.08h-1.09v-1.08h1.09Z"/><path d="M54.53,223.18c-.93-.83-1.07-2.33-1.07-3.65s.14-2.81,1.07-3.63c.42-.37,1-.68,1.83-.68s1.42.3,1.83.68c.92.85,1.07,2.33,1.07,3.63s-.14,2.82-1.07,3.65c-.41.37-1,.68-1.83.68s-1.41-.31-1.83-.68ZM57.79,222.8c.81-.73.85-2.17.85-3.26s-.04-2.52-.85-3.25c-.33-.3-.78-.49-1.42-.49s-1.09.2-1.41.49c-.82.73-.85,2.17-.85,3.25s.04,2.53.85,3.26c.32.29.78.49,1.41.49s1.1-.19,1.42-.49Z"/><path d="M45.67,135.61v-.67l2.35-1.62h.56v8.31h-.62v-7.57l-2.29,1.55Z"/><path d="M52.01,140.55v1.08h-1.09v-1.08h1.09Z"/><path d="M53.76,139.22h.62c.06,1.18.9,2,2.21,2,1.38,0,2.16-.94,2.16-2.19s-.68-2.22-2.06-2.22c-.77,0-1.52.29-1.93.91h-.73l.35-4.4h4.7v.56h-4.16l-.28,3.24c.47-.59,1.3-.88,2.07-.88,1.77,0,2.68,1.2,2.68,2.78s-.98,2.77-2.78,2.77-2.79-1.12-2.82-2.58Z"/><path d="M46.04,58.91l3.58-3.74c.57-.6.85-1.2.85-1.82,0-.98-.69-1.69-1.87-1.69s-1.92.78-1.92,2.13h-.66c0-1.68,1.05-2.71,2.58-2.71,1.41,0,2.49.88,2.49,2.27,0,.74-.37,1.54-.99,2.17l-3.36,3.47h4.57v.58h-5.28v-.65Z"/><path d="M54.23,58.48v1.08h-1.09v-1.08h1.09Z"/><path d="M56.75,59.05c-.93-.83-1.07-2.33-1.07-3.65s.14-2.81,1.07-3.63c.42-.37,1-.68,1.83-.68s1.43.3,1.83.68c.92.85,1.07,2.33,1.07,3.63s-.14,2.82-1.07,3.65c-.41.37-1,.68-1.83.68s-1.41-.31-1.83-.68ZM60.01,58.66c.81-.73.85-2.17.85-3.26s-.04-2.52-.85-3.25c-.33-.3-.78-.49-1.43-.49s-1.09.2-1.41.49c-.82.73-.85,2.17-.85,3.25s.04,2.53.85,3.26c.32.29.78.49,1.41.49s1.1-.19,1.43-.49Z"/><line id="y_axis" class="cls-2" x1="67.49" y1="8.81" x2="67.49" y2="383.26"/><line id="x_axis" class="cls-2" x1="67.02" y1="381.91" x2="571.45" y2="381.91"/><path d="M20.38,318.06c-1.09,1.18-2.72,1.36-4.15,1.36s-3.05-.17-4.13-1.36c-.6-.67-1.02-1.56-1.02-2.7s.43-2.04,1.02-2.69c1.08-1.2,2.7-1.37,4.13-1.37s3.07.17,4.15,1.37c.59.65,1.02,1.55,1.02,2.69s-.42,2.05-1.02,2.7ZM19.9,313.22c-.95-1.03-2.49-1.13-3.67-1.13s-2.7.1-3.66,1.13c-.5.55-.78,1.31-.78,2.14s.27,1.59.78,2.14c.97,1.03,2.48,1.14,3.66,1.14s2.7-.1,3.67-1.14c.5-.55.78-1.31.78-2.14s-.28-1.59-.78-2.14Z"/><path d="M11.27,305.48c0-1.16.38-2.08.97-2.72,1.06-1.16,2.61-1.33,4.01-1.33s2.93.17,3.99,1.33c.59.64.97,1.56.97,2.72v3.38h-9.93v-3.38ZM19.77,303.32c-.91-1.01-2.41-1.1-3.53-1.1s-2.63.09-3.54,1.1c-.48.52-.71,1.31-.71,2.17v2.63h8.5v-2.63c0-.85-.24-1.65-.71-2.17Z"/><path d="M11.27,291.87c0-2.24,1.12-3.45,2.83-3.45,1.33,0,2.38.95,2.65,2.4l4.45-2.31v.82l-4.29,2.21v3.32h4.29v.75h-9.93v-3.74ZM14.1,289.19c-1.4,0-2.14.98-2.14,2.67v2.99h4.29v-2.99c0-1.69-.74-2.67-2.14-2.67Z"/><path d="M20.42,285.94c-.67.59-1.62.95-2.69.95-.88,0-1.75-.14-2.49-.72-.8-.62-1.23-1.47-1.23-2.53,0-1.99,1.54-3.19,3.4-3.19.17,0,.27,0,.46.01v5.71c1.56-.03,2.86-.97,2.86-2.59,0-1.14-.73-2.04-1.62-2.21v-.75c1.32.22,2.3,1.52,2.3,2.96,0,1.04-.45,1.88-.98,2.36ZM17.24,281.2c-1.33.03-2.58.88-2.58,2.44s1.2,2.49,2.58,2.51v-4.96Z"/><path d="M19.07,278.95v-.74c1.15-.12,1.65-1.05,1.65-2.24s-.5-2.1-1.46-2.1c-.62,0-1.13.45-1.25,1.33l-.18,1.4c-.15,1.21-.71,2.04-1.78,2.04-1.25,0-2.06-1.24-2.06-2.6,0-1.56.87-2.69,2.13-2.73v.72c-1.01.1-1.47.95-1.47,2.01s.55,1.86,1.33,1.86c.57,0,1.01-.32,1.15-1.4l.18-1.37c.18-1.36,1.06-1.99,1.9-1.99,1.43,0,2.17,1.33,2.17,2.83,0,1.72-.88,2.9-2.33,2.98Z"/><path d="M14.2,271.08v-.67l1.33-.06c-.92-.4-1.53-1.47-1.53-2.47,0-.85.27-1.49.67-1.98.69-.84,1.76-1.21,3.01-1.21s2.27.36,2.97,1.14c.45.49.74,1.17.74,2.04,0,1.05-.57,2.08-1.47,2.49h4.06v.72h-9.79ZM20.08,266.25c-.6-.58-1.48-.82-2.38-.82-.99,0-1.93.29-2.51.98-.31.36-.5.85-.5,1.49s.24,1.14.57,1.52c.62.67,1.47.95,2.44.95,1.04,0,1.85-.26,2.45-.94.34-.38.56-.88.56-1.56s-.24-1.24-.63-1.62Z"/><path d="M20.57,261.85c-.74.79-1.67,1.1-2.87,1.1s-2.13-.3-2.87-1.1c-.48-.52-.83-1.24-.83-2.17s.35-1.65.83-2.17c.74-.79,1.68-1.1,2.87-1.1s2.13.3,2.87,1.1c.48.52.83,1.24.83,2.17s-.35,1.65-.83,2.17ZM20.1,258.02c-.64-.68-1.47-.87-2.4-.87s-1.75.19-2.4.87c-.38.39-.62.94-.62,1.66s.24,1.27.62,1.66c.64.68,1.48.87,2.4.87s1.75-.19,2.4-.87c.38-.39.62-.94.62-1.66s-.24-1.27-.62-1.66Z"/><path d="M14.2,254.21v-.67l1.34-.06c-.97-.38-1.54-1.5-1.54-2.51,0-1.65,1.06-2.56,2.62-2.56h4.58v.72h-4.51c-1.18,0-2,.62-2,1.91,0,1.6,1.29,2.44,2.84,2.44h3.67v.72h-7Z"/><path d="M19.07,246.46v-.74c1.15-.12,1.65-1.05,1.65-2.24s-.5-2.1-1.46-2.1c-.62,0-1.13.45-1.25,1.33l-.18,1.4c-.15,1.21-.71,2.04-1.78,2.04-1.25,0-2.06-1.24-2.06-2.6,0-1.56.87-2.69,2.13-2.73v.72c-1.01.1-1.47.95-1.47,2.01s.55,1.86,1.33,1.86c.57,0,1.01-.32,1.15-1.4l.18-1.37c.18-1.36,1.06-1.99,1.9-1.99,1.43,0,2.17,1.33,2.17,2.83,0,1.72-.88,2.9-2.33,2.98Z"/><path d="M20.42,238.12c-.67.59-1.62.95-2.69.95-.88,0-1.75-.14-2.49-.72-.8-.62-1.23-1.47-1.23-2.53,0-1.99,1.54-3.19,3.4-3.19.17,0,.27,0,.46.01v5.71c1.56-.03,2.86-.97,2.86-2.59,0-1.14-.73-2.04-1.62-2.21v-.75c1.32.22,2.3,1.52,2.3,2.96,0,1.04-.45,1.88-.98,2.36ZM17.24,233.38c-1.33.03-2.58.88-2.58,2.44s1.2,2.49,2.58,2.51v-4.96Z"/><path d="M16.68,227.34c-2.19,0-4.62-.82-6.32-2.38l.34-.45c1.77,1.42,3.68,2.15,5.98,2.15s4.22-.74,5.98-2.15l.34.45c-1.69,1.56-4.13,2.38-6.32,2.38Z"/><path d="M18.92,219.16v5h-.84l-6.58-4.33v-.85l6.72,4.45v-4.26h-3.21v-.74h3.21v-1.49h.7v1.49h2.28v.74h-2.28Z"/><path d="M18.39,215.69v-.72c1.37-.07,2.34-1.06,2.34-2.57,0-1.6-1.09-2.51-2.56-2.51s-2.59.79-2.59,2.4c0,.9.34,1.78,1.06,2.25v.85l-5.14-.4v-5.48h.66v4.86l3.78.33c-.69-.55-1.02-1.52-1.02-2.41,0-2.07,1.4-3.12,3.25-3.12s3.24,1.14,3.24,3.24-1.3,3.25-3.01,3.29Z"/><path d="M20.6,206.15c-.97,1.08-2.72,1.24-4.26,1.24s-3.28-.16-4.24-1.24c-.43-.49-.8-1.17-.8-2.14s.35-1.66.8-2.14c.99-1.07,2.72-1.24,4.24-1.24s3.29.16,4.26,1.24c.43.48.8,1.17.8,2.14s-.36,1.65-.8,2.14ZM20.15,202.35c-.85-.94-2.54-1-3.81-1s-2.94.04-3.8,1c-.35.39-.57.91-.57,1.66s.24,1.27.57,1.65c.85.95,2.54,1,3.8,1s2.96-.04,3.81-1c.34-.38.57-.91.57-1.65s-.22-1.29-.57-1.66Z"/><path d="M14.2,198.04v-.67l1.34-.06c-.97-.38-1.54-1.5-1.54-2.51,0-1.65,1.06-2.56,2.62-2.56h4.58v.72h-4.51c-1.18,0-2,.62-2,1.91,0,1.6,1.29,2.44,2.84,2.44h3.67v.72h-7Z"/><path d="M14.2,189.64v-.67l1.37-.06c-.94-.33-1.57-1.21-1.57-2.27,0-1.24.62-1.97,1.51-2.25-.87-.39-1.51-1.17-1.51-2.38,0-1.69,1.08-2.4,2.58-2.4h4.62v.72h-4.54c-1.23,0-2,.49-2,1.75,0,1.36,1.16,2.15,2.58,2.15h3.96v.75h-4.54c-1.23,0-2,.55-2,1.75,0,1.39,1.26,2.18,2.76,2.18h3.78v.72h-7Z"/><path d="M16.65,171.5h.64v3.6h-.64v-3.6Z"/><path d="M20.21,166.38c-.99.77-2.48.92-3.87.92-1.48,0-3.1-.2-4.12-1.18-.49-.48-.92-1.23-.92-2.27,0-1.69,1.01-2.9,2.54-2.99v.74c-1.12.1-1.86.87-1.86,2.25,0,2.24,2.34,2.7,4.65,2.7-1.02-.36-1.71-1.46-1.71-2.64,0-2.08,1.3-3.28,3.22-3.28,1.79,0,3.26,1.19,3.26,3.27,0,1.17-.57,2.01-1.19,2.49ZM18.14,161.37c-1.34,0-2.58.79-2.58,2.53,0,1.45,1.13,2.46,2.55,2.46s2.62-.87,2.62-2.47c0-1.73-1.23-2.51-2.59-2.51Z"/><path d="M18.39,158.99v-.72c1.37-.07,2.34-1.06,2.34-2.57,0-1.6-1.09-2.51-2.56-2.51s-2.59.79-2.59,2.4c0,.9.34,1.78,1.06,2.25v.85l-5.14-.4v-5.48h.66v4.86l3.78.33c-.69-.55-1.02-1.52-1.02-2.41,0-2.07,1.4-3.12,3.25-3.12s3.24,1.14,3.24,3.24-1.3,3.25-3.01,3.29Z"/><path d="M20.6,149.45c-.97,1.08-2.72,1.24-4.26,1.24s-3.28-.16-4.24-1.24c-.43-.49-.8-1.17-.8-2.14s.35-1.66.8-2.14c.99-1.07,2.72-1.24,4.24-1.24s3.29.16,4.26,1.24c.43.48.8,1.17.8,2.14s-.36,1.65-.8,2.14ZM20.15,145.65c-.85-.94-2.54-1-3.81-1s-2.94.04-3.8,1c-.35.39-.57.91-.57,1.66s.24,1.27.57,1.65c.85.95,2.54,1,3.8,1s2.96-.04,3.81-1c.34-.38.57-.91.57-1.65s-.22-1.29-.57-1.66Z"/><path d="M14.2,141.34v-.67l1.34-.06c-.97-.38-1.54-1.5-1.54-2.51,0-1.65,1.06-2.56,2.62-2.56h4.58v.72h-4.51c-1.18,0-2,.62-2,1.91,0,1.6,1.29,2.44,2.84,2.44h3.67v.72h-7Z"/><path d="M14.2,132.94v-.67l1.37-.06c-.94-.33-1.57-1.21-1.57-2.27,0-1.24.62-1.97,1.51-2.25-.87-.39-1.51-1.17-1.51-2.38,0-1.69,1.08-2.4,2.58-2.4h4.62v.72h-4.54c-1.23,0-2,.49-2,1.75,0,1.36,1.16,2.15,2.58,2.15h3.96v.75h-4.54c-1.23,0-2,.55-2,1.75,0,1.39,1.26,2.18,2.76,2.18h3.78v.72h-7Z"/><path d="M22.66,121.36c-1.76-1.42-3.68-2.15-5.98-2.15s-4.22.74-5.98,2.15l-.34-.45c1.69-1.56,4.13-2.38,6.32-2.38s4.62.82,6.32,2.38l-.34.45Z"/><path d="M255.83,412.01h.67l.06,1.44c.32-.98,1.3-1.51,2.33-1.51.22,0,.46,0,.68.07v.67c-.23-.06-.48-.07-.71-.07-1.68,0-2.3,1.34-2.3,2.9v3.5h-.72v-7Z"/><path d="M261.44,418.23c-.59-.67-.95-1.62-.95-2.69,0-.88.14-1.75.72-2.49.62-.8,1.47-1.23,2.53-1.23,1.99,0,3.19,1.54,3.19,3.4,0,.17,0,.27-.01.46h-5.71c.03,1.55.97,2.86,2.59,2.86,1.14,0,2.04-.73,2.21-1.62h.75c-.22,1.32-1.52,2.3-2.96,2.3-1.04,0-1.88-.45-2.36-.98ZM266.18,415.05c-.03-1.33-.88-2.58-2.44-2.58s-2.49,1.21-2.51,2.58h4.96Z"/><path d="M269.63,418.37c-.77-.74-1.04-1.67-1.04-2.86s.26-2.14,1.04-2.87c.52-.49,1.26-.83,2.18-.83,1.53,0,2.7.91,2.88,2.37h-.77c-.16-.97-.98-1.68-2.11-1.68-.71,0-1.27.22-1.66.6-.68.66-.82,1.48-.82,2.41s.16,1.74.84,2.4c.39.38.95.6,1.66.6,1.13,0,1.95-.71,2.11-1.68h.75c-.19,1.44-1.36,2.37-2.88,2.37-.92,0-1.66-.32-2.18-.83Z"/><path d="M277.51,417.76v1.26h-1.27v-1.26h1.27Z"/><path d="M283.5,408.88v4.43c.4-.9,1.47-1.48,2.49-1.48,1.65,0,2.59,1.01,2.59,2.58v4.62h-.72v-4.58c0-1.23-.61-1.96-1.91-1.96-1.76,0-2.44,1.53-2.44,3.04v3.5h-.72v-10.14h.72Z"/><path d="M291.09,416.54v-4.52h.72v4.48c0,1.22.62,2.03,1.89,2.03,1.68,0,2.37-1.3,2.37-2.87v-3.64h.72v7h-.66l-.06-1.32c-.4.92-1.33,1.51-2.41,1.51-1.63,0-2.57-1.11-2.57-2.68Z"/><path d="M303.82,409.09v9.93h-.77v-9.93h.77Z"/><path d="M307.61,409.09v9.25h5.32v.69h-6.07v-9.93h.75Z"/><path d="M314.7,418.02c-.77-.99-.92-2.48-.92-3.87,0-1.48.2-3.1,1.18-4.12.48-.49,1.23-.92,2.27-.92,1.69,0,2.9,1.01,2.99,2.54h-.74c-.1-1.12-.87-1.86-2.25-1.86-2.24,0-2.7,2.34-2.7,4.65.36-1.02,1.46-1.71,2.64-1.71,2.08,0,3.28,1.3,3.28,3.22,0,1.79-1.19,3.26-3.27,3.26-1.17,0-2.01-.58-2.49-1.19ZM319.71,415.95c0-1.34-.79-2.58-2.53-2.58-1.45,0-2.46,1.13-2.46,2.55s.87,2.62,2.47,2.62c1.73,0,2.51-1.23,2.51-2.59Z"/><path d="M325.77,414.49c0-2.19.82-4.62,2.38-6.32l.45.34c-1.42,1.76-2.15,3.68-2.15,5.98s.74,4.22,2.15,5.98l-.45.34c-1.56-1.7-2.38-4.13-2.38-6.32Z"/><path d="M330.24,412.01h.67l.06,1.34c.38-.97,1.5-1.54,2.51-1.54,1.65,0,2.56,1.06,2.56,2.62v4.58h-.72v-4.51c0-1.18-.62-2-1.91-2-1.6,0-2.44,1.29-2.44,2.84v3.67h-.72v-7Z"/><path d="M338.01,420.01c0-.73.49-1.36,1.27-1.57-.55-.11-.95-.57-.95-1.09,0-.59.42-1.02,1.01-1.23-.52-.42-.84-1.05-.84-1.83,0-1.51,1.24-2.47,2.7-2.47.65,0,1.24.18,1.73.49.17-.62.77-.97,1.42-.97.09,0,.2.01.27.03v.59c-.07-.01-.19-.01-.27-.01-.52,0-.9.28-1,.76.36.41.58.94.58,1.58,0,1.51-1.23,2.42-2.73,2.42-.55,0-1.05-.11-1.47-.34-.39.15-.75.42-.75.84,0,.64.72.73,1.3.73h1.49c1.11,0,1.81.18,2.3.63.35.32.55.7.55,1.29,0,1.57-1.69,2.14-3.41,2.14s-3.19-.6-3.19-1.99ZM343.9,419.89c0-1.01-.94-1.29-2.07-1.29h-1.94c-.65.15-1.2.53-1.2,1.34,0,1.09,1.26,1.43,2.53,1.43,1.37,0,2.67-.34,2.67-1.48ZM343.22,414.28c0-1.16-.88-1.85-2.01-1.85s-1.99.69-1.99,1.85.87,1.81,1.99,1.81,2.01-.66,2.01-1.81Z"/><path d="M346.2,419.21h-.69l4.51-10.32h.69l-4.51,10.32Z"/><path d="M351.96,412.01h.67l.06,1.37c.33-.94,1.21-1.57,2.27-1.57,1.24,0,1.97.62,2.25,1.51.39-.87,1.17-1.51,2.38-1.51,1.69,0,2.4,1.08,2.4,2.58v4.62h-.72v-4.54c0-1.23-.49-2-1.75-2-1.36,0-2.15,1.16-2.15,2.58v3.96h-.75v-4.54c0-1.23-.55-2-1.75-2-1.39,0-2.18,1.26-2.18,2.76v3.78h-.72v-7Z"/><path d="M365.52,409.09v9.25h5.32v.69h-6.07v-9.93h.75Z"/><path d="M371.5,420.47c1.42-1.76,2.15-3.68,2.15-5.98s-.74-4.22-2.15-5.98l.45-.34c1.56,1.69,2.38,4.13,2.38,6.32s-.82,4.62-2.38,6.32l-.45-.34Z"/></svg>