<?xml version="1.0" encoding="UTF-8"?><svg id="Layer_3" xmlns="http://www.w3.org/2000/svg" viewBox="0 0 612.94 439.17"><defs><style>.cls-1{stroke:#7e7b7c;}.cls-1,.cls-2,.cls-3{fill:none;stroke-miterlimit:10;}.cls-2{stroke:#aaa9a9;stroke-width:3px;}.cls-4{fill:#fff;}.cls-5{fill:#7c7a7a;}.cls-3{stroke:#fb213f;stroke-linecap:square;stroke-width:5px;}.cls-6{fill:#fb213f;}.cls-7{fill:#7e7b7c;}</style></defs><rect class="cls-4" x="-9.49" y="-19.33" width="648.83" height="478.8"/><path id="Bright_red_line" class="cls-3" d="M91.78,381.04c5.53-22.19,11.06-44.38,16.6-66.57,5.8-13.09,11.6-26.17,17.4-39.26,3.79-5.52,7.59-11.05,11.38-16.57,22.37-22.96,44.74-45.93,67.11-68.89l337.1-75.7"/><rect class="cls-4" x="88.57" y="381.04" width="15.97" height="15.25"/><rect class="cls-4" x="75.81" y="375.34" width="15.97" height="15.25"/><path d="M76.48,385.78c-.93-.83-1.07-2.33-1.07-3.65s.14-2.81,1.07-3.63c.42-.37,1-.68,1.83-.68s1.42.3,1.83.68c.92.85,1.07,2.33,1.07,3.63s-.14,2.82-1.07,3.65c-.41.37-1,.68-1.83.68s-1.41-.31-1.83-.68ZM79.74,385.4c.8-.73.85-2.17.85-3.26s-.04-2.52-.85-3.25c-.33-.3-.78-.49-1.42-.49s-1.09.2-1.41.49c-.82.73-.85,2.17-.85,3.25s.04,2.53.85,3.26c.32.29.78.49,1.41.49s1.1-.19,1.42-.49Z"/><path d="M90.61,398.17c-.93-.83-1.07-2.33-1.07-3.65s.14-2.81,1.07-3.63c.42-.37,1-.68,1.83-.68s1.42.3,1.83.68c.92.85,1.07,2.33,1.07,3.63s-.14,2.82-1.07,3.65c-.41.37-1,.68-1.83.68s-1.41-.31-1.83-.68ZM93.87,397.78c.81-.73.86-2.17.86-3.26s-.04-2.52-.86-3.25c-.33-.3-.78-.49-1.42-.49s-1.09.21-1.41.49c-.82.73-.86,2.17-.86,3.25s.04,2.53.86,3.26c.32.29.78.49,1.41.49s1.1-.19,1.42-.49Z"/><path d="M534.35,396.73h-4.29v-.72l3.72-5.64h.73l-3.82,5.76h3.66v-2.75h.63v2.75h1.28v.6h-1.28v1.96h-.63v-1.96Z"/><path d="M538.53,398.17c-.93-.83-1.07-2.33-1.07-3.65s.14-2.81,1.07-3.63c.42-.37,1-.68,1.83-.68s1.42.3,1.83.68c.92.85,1.07,2.33,1.07,3.63s-.14,2.82-1.07,3.65c-.41.37-1,.68-1.83.68s-1.41-.31-1.83-.68ZM541.79,397.78c.81-.73.85-2.17.85-3.26s-.04-2.52-.85-3.25c-.33-.3-.78-.49-1.42-.49s-1.09.2-1.41.49c-.82.73-.86,2.17-.86,3.25s.04,2.53.86,3.26c.32.29.78.49,1.41.49s1.1-.19,1.42-.49Z"/><path d="M545.96,398.17c-.93-.83-1.07-2.33-1.07-3.65s.14-2.81,1.07-3.63c.42-.37,1-.68,1.83-.68s1.42.3,1.83.68c.92.85,1.07,2.33,1.07,3.63s-.14,2.82-1.07,3.65c-.41.37-1,.68-1.83.68s-1.41-.31-1.83-.68ZM549.22,397.78c.81-.73.85-2.17.85-3.26s-.04-2.52-.85-3.25c-.33-.3-.78-.49-1.42-.49s-1.09.2-1.41.49c-.82.73-.86,2.17-.86,3.25s.04,2.53.86,3.26c.32.29.78.49,1.41.49s1.1-.19,1.42-.49Z"/><path d="M53.44,292.16h.62c.06,1.17.91,2,2.21,2,1.38,0,2.16-.94,2.16-2.2s-.68-2.22-2.06-2.22c-.77,0-1.52.29-1.93.91h-.73l.35-4.4h4.7v.56h-4.16l-.28,3.24c.47-.59,1.3-.88,2.07-.88,1.77,0,2.68,1.2,2.68,2.78s-.98,2.77-2.78,2.77-2.79-1.12-2.83-2.58Z"/><path d="M61.61,294.06c-.93-.83-1.07-2.33-1.07-3.65s.14-2.81,1.07-3.63c.42-.37,1-.68,1.83-.68s1.42.3,1.83.68c.92.85,1.07,2.33,1.07,3.63s-.14,2.82-1.07,3.65c-.41.37-1,.68-1.83.68s-1.41-.31-1.83-.68ZM64.87,293.67c.81-.73.86-2.17.86-3.26s-.04-2.52-.86-3.25c-.33-.3-.78-.49-1.42-.49s-1.09.2-1.41.49c-.82.73-.86,2.17-.86,3.25s.04,2.53.86,3.26c.32.29.78.49,1.41.49s1.1-.19,1.42-.49Z"/><path d="M69.05,294.06c-.93-.83-1.07-2.33-1.07-3.65s.14-2.81,1.07-3.63c.42-.37,1-.68,1.83-.68s1.42.3,1.83.68c.92.85,1.07,2.33,1.07,3.63s-.14,2.82-1.07,3.65c-.41.37-1,.68-1.83.68s-1.41-.31-1.83-.68ZM72.31,293.67c.81-.73.86-2.17.86-3.26s-.04-2.52-.86-3.25c-.33-.3-.78-.49-1.42-.49s-1.09.2-1.41.49c-.82.73-.86,2.17-.86,3.25s.04,2.53.86,3.26c.32.29.78.49,1.41.49s1.1-.19,1.42-.49Z"/><path d="M76.48,294.06c-.93-.83-1.07-2.33-1.07-3.65s.14-2.81,1.07-3.63c.42-.37,1-.68,1.83-.68s1.42.3,1.83.68c.92.85,1.07,2.33,1.07,3.63s-.14,2.82-1.07,3.65c-.41.37-1,.68-1.83.68s-1.41-.31-1.83-.68ZM79.74,293.67c.81-.73.86-2.17.86-3.26s-.04-2.52-.86-3.25c-.33-.3-.78-.49-1.42-.49s-1.09.2-1.41.49c-.82.73-.86,2.17-.86,3.25s.04,2.53.86,3.26c.32.29.78.49,1.41.49s1.1-.19,1.42-.49Z"/><path d="M48.11,196.83v-.67l2.35-1.62h.56v8.31h-.62v-7.57l-2.29,1.55Z"/><path d="M54.18,202.33c-.93-.83-1.07-2.33-1.07-3.65s.14-2.81,1.07-3.63c.42-.37,1-.68,1.83-.68s1.42.3,1.83.68c.92.85,1.07,2.33,1.07,3.63s-.14,2.82-1.07,3.65c-.41.37-1,.68-1.83.68s-1.41-.31-1.83-.68ZM57.44,201.95c.81-.73.85-2.17.85-3.26s-.04-2.52-.85-3.25c-.33-.3-.78-.49-1.42-.49s-1.09.2-1.41.49c-.82.73-.86,2.17-.86,3.25s.04,2.53.86,3.26c.32.29.78.49,1.41.49s1.1-.19,1.42-.49Z"/><path d="M61.62,202.33c-.93-.83-1.07-2.33-1.07-3.65s.14-2.81,1.07-3.63c.42-.37,1-.68,1.83-.68s1.43.3,1.83.68c.92.85,1.07,2.33,1.07,3.63s-.14,2.82-1.07,3.65c-.41.37-1,.68-1.83.68s-1.41-.31-1.83-.68ZM64.87,201.95c.8-.73.85-2.17.85-3.26s-.04-2.52-.85-3.25c-.33-.3-.78-.49-1.43-.49s-1.09.2-1.41.49c-.82.73-.85,2.17-.85,3.25s.04,2.53.85,3.26c.32.29.78.49,1.41.49s1.1-.19,1.43-.49Z"/><path d="M69.05,202.33c-.93-.83-1.07-2.33-1.07-3.65s.14-2.81,1.07-3.63c.42-.37,1-.68,1.83-.68s1.43.3,1.83.68c.92.85,1.07,2.33,1.07,3.63s-.14,2.82-1.07,3.65c-.41.37-1,.68-1.83.68s-1.41-.31-1.83-.68ZM72.31,201.95c.8-.73.85-2.17.85-3.26s-.04-2.52-.85-3.25c-.33-.3-.78-.49-1.43-.49s-1.09.2-1.41.49c-.82.73-.85,2.17-.85,3.25s.04,2.53.85,3.26c.32.29.78.49,1.41.49s1.1-.19,1.43-.49Z"/><path d="M76.48,202.33c-.93-.83-1.07-2.33-1.07-3.65s.14-2.81,1.07-3.63c.42-.37,1-.68,1.83-.68s1.43.3,1.83.68c.92.85,1.07,2.33,1.07,3.63s-.14,2.82-1.07,3.65c-.41.37-1,.68-1.83.68s-1.41-.31-1.83-.68ZM79.74,201.95c.8-.73.85-2.17.85-3.26s-.04-2.52-.85-3.25c-.33-.3-.78-.49-1.43-.49s-1.09.2-1.41.49c-.82.73-.85,2.17-.85,3.25s.04,2.53.85,3.26c.32.29.78.49,1.41.49s1.1-.19,1.43-.49Z"/><path d="M48.57,105.11v-.67l2.35-1.62h.56v8.31h-.62v-7.57l-2.29,1.55Z"/><path d="M53.44,108.72h.62c.06,1.17.91,2,2.21,2,1.38,0,2.16-.94,2.16-2.2s-.68-2.22-2.06-2.22c-.77,0-1.52.29-1.93.91h-.73l.35-4.4h4.7v.56h-4.16l-.28,3.24c.47-.59,1.3-.88,2.07-.88,1.77,0,2.68,1.2,2.68,2.78s-.98,2.77-2.78,2.77-2.79-1.12-2.83-2.58Z"/><path d="M61.61,110.61c-.93-.83-1.07-2.33-1.07-3.65s.14-2.81,1.07-3.63c.42-.37,1-.68,1.83-.68s1.42.3,1.83.68c.92.85,1.07,2.33,1.07,3.63s-.14,2.82-1.07,3.65c-.41.37-1,.68-1.83.68s-1.41-.31-1.83-.68ZM64.87,110.23c.81-.73.86-2.17.86-3.26s-.04-2.52-.86-3.25c-.33-.3-.78-.49-1.42-.49s-1.09.2-1.41.49c-.82.73-.86,2.17-.86,3.25s.04,2.53.86,3.26c.32.29.78.49,1.41.49s1.1-.19,1.42-.49Z"/><path d="M69.05,110.61c-.93-.83-1.07-2.33-1.07-3.65s.14-2.81,1.07-3.63c.42-.37,1-.68,1.83-.68s1.42.3,1.83.68c.92.85,1.07,2.33,1.07,3.63s-.14,2.82-1.07,3.65c-.41.37-1,.68-1.83.68s-1.41-.31-1.83-.68ZM72.31,110.23c.81-.73.86-2.17.86-3.26s-.04-2.52-.86-3.25c-.33-.3-.78-.49-1.42-.49s-1.09.2-1.41.49c-.82.73-.86,2.17-.86,3.25s.04,2.53.86,3.26c.32.29.78.49,1.41.49s1.1-.19,1.42-.49Z"/><path d="M76.48,110.61c-.93-.83-1.07-2.33-1.07-3.65s.14-2.81,1.07-3.63c.42-.37,1-.68,1.83-.68s1.42.3,1.83.68c.92.85,1.07,2.33,1.07,3.63s-.14,2.82-1.07,3.65c-.41.37-1,.68-1.83.68s-1.41-.31-1.83-.68ZM79.74,110.23c.81-.73.86-2.17.86-3.26s-.04-2.52-.86-3.25c-.33-.3-.78-.49-1.42-.49s-1.09.2-1.41.49c-.82.73-.86,2.17-.86,3.25s.04,2.53.86,3.26c.32.29.78.49,1.41.49s1.1-.19,1.42-.49Z"/><path d="M46.45,18.76l3.58-3.74c.57-.6.86-1.2.86-1.82,0-.98-.69-1.69-1.87-1.69s-1.92.78-1.92,2.13h-.66c0-1.68,1.05-2.71,2.58-2.71,1.41,0,2.49.88,2.49,2.27,0,.74-.37,1.54-.99,2.17l-3.36,3.47h4.57v.58h-5.28v-.65Z"/><path d="M54.18,18.89c-.93-.83-1.07-2.33-1.07-3.65s.14-2.81,1.07-3.63c.42-.37,1-.68,1.83-.68s1.42.3,1.83.68c.92.85,1.07,2.33,1.07,3.63s-.14,2.82-1.07,3.65c-.41.37-1,.68-1.83.68s-1.41-.31-1.83-.68ZM57.44,18.5c.81-.73.85-2.17.85-3.26s-.04-2.52-.85-3.25c-.33-.3-.78-.49-1.42-.49s-1.09.2-1.41.49c-.82.73-.86,2.17-.86,3.25s.04,2.53.86,3.26c.32.29.78.49,1.41.49s1.1-.19,1.42-.49Z"/><path d="M61.61,18.89c-.93-.83-1.07-2.33-1.07-3.65s.14-2.81,1.07-3.63c.42-.37,1-.68,1.83-.68s1.42.3,1.83.68c.92.85,1.07,2.33,1.07,3.63s-.14,2.82-1.07,3.65c-.41.37-1,.68-1.83.68s-1.41-.31-1.83-.68ZM64.87,18.5c.81-.73.85-2.17.85-3.26s-.04-2.52-.85-3.25c-.33-.3-.78-.49-1.42-.49s-1.09.2-1.41.49c-.82.73-.86,2.17-.86,3.25s.04,2.53.86,3.26c.32.29.78.49,1.41.49s1.1-.19,1.42-.49Z"/><path d="M69.05,18.89c-.93-.83-1.07-2.33-1.07-3.65s.14-2.81,1.07-3.63c.42-.37,1-.68,1.83-.68s1.42.3,1.83.68c.92.85,1.07,2.33,1.07,3.63s-.14,2.82-1.07,3.65c-.41.37-1,.68-1.83.68s-1.41-.31-1.83-.68ZM72.31,18.5c.81-.73.85-2.17.85-3.26s-.04-2.52-.85-3.25c-.33-.3-.78-.49-1.42-.49s-1.09.2-1.41.49c-.82.73-.86,2.17-.86,3.25s.04,2.53.86,3.26c.32.29.78.49,1.41.49s1.1-.19,1.42-.49Z"/><path d="M76.48,18.89c-.93-.83-1.07-2.33-1.07-3.65s.14-2.81,1.07-3.63c.42-.37,1-.68,1.83-.68s1.42.3,1.83.68c.92.85,1.07,2.33,1.07,3.63s-.14,2.82-1.07,3.65c-.41.37-1,.68-1.83.68s-1.41-.31-1.83-.68ZM79.74,18.5c.81-.73.85-2.17.85-3.26s-.04-2.52-.85-3.25c-.33-.3-.78-.49-1.42-.49s-1.09.2-1.41.49c-.82.73-.86,2.17-.86,3.25s.04,2.53.86,3.26c.32.29.78.49,1.41.49s1.1-.19,1.42-.49Z"/><path d="M271.13,417.09v9.93h-.77v-9.93h.77Z"/><path d="M274.92,417.09v9.24h5.32v.69h-6.07v-9.93h.75Z"/><path d="M283.7,422.47v.64h-3.6v-.64h3.6Z"/><path d="M286.5,426.02c-.77-.99-.92-2.48-.92-3.87,0-1.48.2-3.1,1.18-4.12.48-.49,1.23-.92,2.27-.92,1.69,0,2.9,1.01,2.99,2.54h-.74c-.1-1.12-.87-1.86-2.25-1.86-2.24,0-2.7,2.34-2.7,4.65.36-1.02,1.46-1.71,2.64-1.71,2.08,0,3.28,1.3,3.28,3.22,0,1.79-1.19,3.26-3.27,3.26-1.17,0-2.01-.57-2.49-1.19ZM291.52,423.95c0-1.34-.79-2.58-2.53-2.58-1.45,0-2.46,1.13-2.46,2.55s.87,2.62,2.47,2.62c1.73,0,2.52-1.23,2.52-2.59Z"/><path d="M297.83,420.01h.67l.06,1.33c.41-.92,1.47-1.53,2.47-1.53.85,0,1.49.27,1.98.67.84.69,1.21,1.76,1.21,3.01s-.36,2.27-1.14,2.97c-.49.45-1.17.74-2.04.74-1.05,0-2.08-.57-2.49-1.47v4.06h-.72v-9.79ZM302.66,425.9c.58-.6.82-1.48.82-2.38,0-.99-.29-1.93-.98-2.51-.36-.31-.85-.5-1.49-.5s-1.14.24-1.52.57c-.66.62-.95,1.47-.95,2.44,0,1.04.26,1.85.94,2.45.38.34.88.56,1.56.56s1.24-.24,1.62-.63Z"/><path d="M305.82,428.01c0-.73.49-1.36,1.27-1.57-.55-.11-.95-.57-.95-1.09,0-.59.42-1.02,1.01-1.23-.52-.42-.84-1.05-.84-1.83,0-1.51,1.24-2.47,2.7-2.47.65,0,1.24.18,1.73.49.17-.62.77-.97,1.42-.97.09,0,.2.01.28.03v.59c-.07-.01-.19-.01-.28-.01-.52,0-.9.28-1,.76.36.41.58.94.58,1.58,0,1.51-1.23,2.42-2.73,2.42-.55,0-1.05-.11-1.47-.34-.39.15-.75.42-.75.84,0,.64.72.73,1.3.73h1.49c1.11,0,1.81.18,2.3.63.35.32.55.7.55,1.29,0,1.57-1.69,2.14-3.41,2.14s-3.19-.6-3.19-1.99ZM311.7,427.89c0-1.01-.94-1.29-2.07-1.29h-1.94c-.65.15-1.2.53-1.2,1.34,0,1.09,1.26,1.43,2.53,1.43,1.37,0,2.67-.34,2.67-1.48ZM311.02,422.28c0-1.16-.88-1.85-2.01-1.85s-1.99.69-1.99,1.85.87,1.81,1.99,1.81,2.01-.66,2.01-1.81Z"/><path d="M317.64,420.01h.66l.06,1.33c.4-.92,1.47-1.53,2.47-1.53.85,0,1.49.27,1.98.67.84.69,1.21,1.76,1.21,3.01s-.36,2.27-1.14,2.97c-.49.45-1.17.74-2.04.74-1.05,0-2.08-.57-2.48-1.47v4.06h-.72v-9.79ZM322.47,425.9c.58-.6.82-1.48.82-2.38,0-.99-.29-1.93-.98-2.51-.36-.31-.85-.5-1.49-.5s-1.14.24-1.52.57c-.67.62-.96,1.47-.96,2.44,0,1.04.26,1.85.94,2.45.38.34.88.56,1.56.56s1.24-.24,1.62-.63Z"/><path d="M326.7,426.23c-.59-.67-.95-1.62-.95-2.69,0-.88.14-1.75.72-2.49.62-.8,1.47-1.23,2.53-1.23,1.99,0,3.19,1.54,3.19,3.4,0,.17,0,.27-.01.46h-5.71c.03,1.56.97,2.86,2.59,2.86,1.14,0,2.04-.73,2.21-1.62h.75c-.22,1.32-1.52,2.3-2.96,2.3-1.04,0-1.88-.45-2.36-.98ZM331.44,423.05c-.03-1.33-.88-2.58-2.44-2.58s-2.49,1.2-2.51,2.58h4.96Z"/><path d="M334.34,420.01h.66l.06,1.44c.32-.98,1.3-1.51,2.33-1.51.22,0,.46,0,.68.07v.67c-.23-.06-.48-.07-.71-.07-1.68,0-2.3,1.34-2.3,2.9v3.5h-.72v-7Z"/><path d="M343.43,425.2v-4.54h-1.71v-.64h1.71v-1.93l.72-.17v2.1h2.27v.64h-2.27v4.44c0,.77.25,1.36,1.3,1.36.39,0,.69-.04,1.07-.13v.62c-.36.11-.72.17-1.13.17-1.42,0-1.97-.8-1.97-1.92Z"/><path d="M348.5,426.23c-.59-.67-.95-1.62-.95-2.69,0-.88.14-1.75.72-2.49.62-.8,1.47-1.23,2.53-1.23,1.99,0,3.19,1.54,3.19,3.4,0,.17,0,.27-.02.46h-5.71c.03,1.56.97,2.86,2.59,2.86,1.14,0,2.04-.73,2.21-1.62h.75c-.22,1.32-1.52,2.3-2.96,2.3-1.04,0-1.88-.45-2.36-.98ZM353.24,423.05c-.03-1.33-.88-2.58-2.44-2.58s-2.49,1.2-2.52,2.58h4.96Z"/><path d="M355.49,424.89h.74c.12,1.15,1.05,1.65,2.24,1.65s2.09-.5,2.09-1.46c0-.62-.45-1.13-1.33-1.25l-1.4-.18c-1.21-.15-2.04-.71-2.04-1.78,0-1.25,1.24-2.06,2.6-2.06,1.56,0,2.69.87,2.73,2.13h-.72c-.1-1.01-.95-1.47-2.01-1.47s-1.87.55-1.87,1.33c0,.57.32,1.01,1.4,1.15l1.37.18c1.36.18,1.99,1.06,1.99,1.9,0,1.43-1.33,2.17-2.83,2.17-1.72,0-2.91-.88-2.98-2.33Z"/><path d="M363.99,425.2v-4.54h-1.71v-.64h1.71v-1.93l.72-.17v2.1h2.27v.64h-2.27v4.44c0,.77.25,1.36,1.3,1.36.39,0,.69-.04,1.07-.13v.62c-.36.11-.72.17-1.13.17-1.42,0-1.96-.8-1.96-1.92Z"/><line id="x_axis" class="cls-2" x1="89.4" y1="381.91" x2="594.84" y2="381.91"/><line id="y_axis" class="cls-2" x1="90.88" y1="8.81" x2="90.88" y2="383.26"/><g id="chart-data-point"><line class="cls-1" x1="541.36" y1="96.08" x2="541.36" y2="141.76"/><rect class="cls-7" x="536.49" y="95.33" width="9.75" height="1.5"/><rect class="cls-7" x="536.49" y="141.01" width="9.75" height="1.5"/><circle class="cls-7" cx="541.36" cy="114.05" r="6.41"/><path class="cls-6" d="M541.36,108.64c2.98,0,5.41,2.43,5.41,5.41s-2.43,5.41-5.41,5.41-5.41-2.43-5.41-5.41,2.43-5.41,5.41-5.41M541.36,106.64c-4.09,0-7.41,3.32-7.41,7.41s3.32,7.41,7.41,7.41,7.41-3.32,7.41-7.41-3.32-7.41-7.41-7.41h0Z"/></g><g id="chart-data-point-2"><line class="cls-1" x1="204.26" y1="171.78" x2="204.26" y2="220.5"/><rect class="cls-7" x="199.39" y="171.03" width="9.75" height="1.5"/><rect class="cls-7" x="199.39" y="219.75" width="9.75" height="1.5"/><path class="cls-7" d="M204.26,196.15c-3.53,0-6.41-2.87-6.41-6.41s2.87-6.41,6.41-6.41,6.41,2.87,6.41,6.41-2.87,6.41-6.41,6.41Z"/><path class="cls-6" d="M204.26,184.34c2.98,0,5.41,2.43,5.41,5.41s-2.43,5.41-5.41,5.41-5.41-2.43-5.41-5.41,2.43-5.41,5.41-5.41M204.26,182.34c-4.09,0-7.41,3.32-7.41,7.41s3.32,7.41,7.41,7.41,7.41-3.32,7.41-7.41-3.32-7.41-7.41-7.41h0Z"/></g><g id="chart-data-point-3"><line class="cls-1" x1="137.15" y1="233.07" x2="137.15" y2="301.39"/><rect class="cls-7" x="132.28" y="232.32" width="9.75" height="1.5"/><rect class="cls-7" x="132.28" y="300.64" width="9.75" height="1.5"/><path class="cls-7" d="M137.15,265.05c-3.53,0-6.41-2.87-6.41-6.41s2.87-6.41,6.41-6.41,6.41,2.87,6.41,6.41-2.87,6.41-6.41,6.41Z"/><path class="cls-6" d="M137.15,253.23c2.98,0,5.41,2.43,5.41,5.41s-2.43,5.41-5.41,5.41-5.41-2.43-5.41-5.41,2.43-5.41,5.41-5.41M137.15,251.23c-4.09,0-7.41,3.32-7.41,7.41s3.32,7.41,7.41,7.41,7.41-3.32,7.41-7.41-3.32-7.41-7.41-7.41h0Z"/></g><g id="chart-data-point-4"><line class="cls-1" x1="125.77" y1="255.43" x2="125.77" y2="301.39"/><rect class="cls-7" x="120.89" y="254.68" width="9.75" height="1.5"/><rect class="cls-7" x="120.89" y="300.64" width="9.75" height="1.5"/><path class="cls-7" d="M125.77,281.62c-3.53,0-6.41-2.87-6.41-6.41s2.87-6.41,6.41-6.41,6.41,2.87,6.41,6.41-2.87,6.41-6.41,6.41Z"/><path class="cls-6" d="M125.77,269.81c2.98,0,5.41,2.43,5.41,5.41s-2.43,5.41-5.41,5.41-5.41-2.43-5.41-5.41,2.43-5.41,5.41-5.41M125.77,267.81c-4.09,0-7.41,3.32-7.41,7.41s3.32,7.41,7.41,7.41,7.41-3.32,7.41-7.41-3.32-7.41-7.41-7.41h0Z"/></g><g id="chart-data-point-5"><path class="cls-1" d="M108.32,304.24c-.07,11.24-.15,22.48-.22,33.72"/><rect class="cls-7" x="107.57" y="299.36" width="1.5" height="9.75" transform="translate(-196.62 410.57) rotate(-89.63)"/><rect class="cls-7" x="107.35" y="333.08" width="1.5" height="9.75" transform="translate(-230.57 443.8) rotate(-89.62)"/><circle class="cls-5" cx="108.37" cy="316.77" r="6.41"/><path class="cls-6" d="M108.37,311.36c2.98,0,5.41,2.43,5.41,5.41s-2.43,5.41-5.41,5.41-5.41-2.43-5.41-5.41,2.43-5.41,5.41-5.41M108.37,309.36c-4.09,0-7.41,3.32-7.41,7.41s3.32,7.41,7.41,7.41,7.41-3.32,7.41-7.41-3.32-7.41-7.41-7.41h0Z"/></g><path d="M415.89,396.23h.63c.01,1.05.69,2.05,2.17,2.05,1.31,0,2.13-.76,2.13-1.81,0-1.25-.87-1.82-2.17-1.82h-.48v-.58h.48c1.18,0,1.98-.53,1.98-1.64,0-.96-.88-1.64-1.93-1.64-1.31,0-2.11.8-2.12,1.92h-.63c.03-1.49,1.16-2.5,2.75-2.5,1.44,0,2.57.9,2.57,2.22,0,.9-.51,1.68-1.5,1.93,1.08.25,1.7,1.12,1.7,2.11,0,1.38-1.2,2.39-2.78,2.39-1.75,0-2.76-1.12-2.8-2.63Z"/><path d="M424.12,398.17c-.93-.83-1.07-2.33-1.07-3.65s.14-2.81,1.07-3.63c.42-.37,1-.68,1.83-.68s1.42.3,1.83.68c.92.85,1.07,2.33,1.07,3.63s-.14,2.82-1.07,3.65c-.41.37-1,.68-1.83.68s-1.41-.31-1.83-.68ZM427.37,397.78c.81-.73.86-2.17.86-3.26s-.04-2.52-.86-3.25c-.33-.3-.78-.49-1.42-.49s-1.09.2-1.41.49c-.82.73-.85,2.17-.85,3.25s.04,2.53.85,3.26c.32.29.78.49,1.41.49s1.1-.19,1.42-.49Z"/><path d="M431.55,398.17c-.93-.83-1.07-2.33-1.07-3.65s.14-2.81,1.07-3.63c.42-.37,1-.68,1.83-.68s1.42.3,1.83.68c.92.85,1.07,2.33,1.07,3.63s-.14,2.82-1.07,3.65c-.41.37-1,.68-1.83.68s-1.41-.31-1.83-.68ZM434.81,397.78c.8-.73.85-2.17.85-3.26s-.04-2.52-.85-3.25c-.33-.3-.78-.49-1.42-.49s-1.09.2-1.41.49c-.82.73-.85,2.17-.85,3.25s.04,2.53.85,3.26c.32.29.78.49,1.41.49s1.1-.19,1.42-.49Z"/><path d="M301.89,398.03l3.58-3.74c.57-.6.85-1.2.85-1.82,0-.98-.69-1.69-1.87-1.69s-1.92.78-1.92,2.13h-.66c0-1.68,1.05-2.71,2.58-2.71,1.41,0,2.49.88,2.49,2.27,0,.74-.37,1.54-.99,2.17l-3.36,3.47h4.57v.58h-5.28v-.65Z"/><path d="M309.62,398.17c-.93-.83-1.07-2.33-1.07-3.65s.14-2.81,1.07-3.63c.42-.37,1-.68,1.83-.68s1.43.3,1.83.68c.92.85,1.07,2.33,1.07,3.63s-.14,2.82-1.07,3.65c-.41.37-1,.68-1.83.68s-1.41-.31-1.83-.68ZM312.88,397.78c.8-.73.85-2.17.85-3.26s-.04-2.52-.85-3.25c-.33-.3-.78-.49-1.43-.49s-1.09.2-1.41.49c-.82.73-.85,2.17-.85,3.25s.04,2.53.85,3.26c.32.29.78.49,1.41.49s1.1-.19,1.43-.49Z"/><path d="M317.05,398.17c-.93-.83-1.07-2.33-1.07-3.65s.14-2.81,1.07-3.63c.42-.37,1-.68,1.83-.68s1.42.3,1.83.68c.92.85,1.07,2.33,1.07,3.63s-.14,2.82-1.07,3.65c-.41.37-1,.68-1.83.68s-1.41-.31-1.83-.68ZM320.31,397.78c.81-.73.85-2.17.85-3.26s-.04-2.52-.85-3.25c-.33-.3-.78-.49-1.42-.49s-1.09.2-1.41.49c-.82.73-.86,2.17-.86,3.25s.04,2.53.86,3.26c.32.29.78.49,1.41.49s1.1-.19,1.42-.49Z"/><path d="M189.52,392.66v-.67l2.35-1.62h.56v8.31h-.62v-7.57l-2.29,1.55Z"/><path d="M195.59,398.17c-.93-.83-1.07-2.33-1.07-3.65s.14-2.81,1.07-3.63c.42-.37,1-.68,1.83-.68s1.42.3,1.83.68c.92.85,1.07,2.33,1.07,3.63s-.14,2.82-1.07,3.65c-.41.37-1,.68-1.83.68s-1.41-.31-1.83-.68ZM198.85,397.78c.81-.73.86-2.17.86-3.26s-.04-2.52-.86-3.25c-.33-.3-.78-.49-1.42-.49s-1.09.2-1.41.49c-.82.73-.86,2.17-.86,3.25s.04,2.53.86,3.26c.32.29.78.49,1.41.49s1.1-.19,1.42-.49Z"/><path d="M203.03,398.17c-.93-.83-1.07-2.33-1.07-3.65s.14-2.81,1.07-3.63c.42-.37,1-.68,1.83-.68s1.42.3,1.83.68c.92.85,1.07,2.33,1.07,3.63s-.14,2.82-1.07,3.65c-.41.37-1,.68-1.83.68s-1.41-.31-1.83-.68ZM206.28,397.78c.8-.73.85-2.17.85-3.26s-.04-2.52-.85-3.25c-.33-.3-.78-.49-1.42-.49s-1.09.2-1.41.49c-.82.73-.85,2.17-.85,3.25s.04,2.53.85,3.26c.32.29.78.49,1.41.49s1.1-.19,1.42-.49Z"/><path d="M7.8,289.87h9.93v.74h-9.29l9.15,3.74v.67l-9.08,3.74h9.22v.74H7.8v-1.18l8.88-3.66-8.88-3.58v-1.2Z"/><path d="M16.94,286.54c-.67.59-1.62.95-2.69.95-.88,0-1.75-.14-2.49-.72-.8-.62-1.23-1.47-1.23-2.53,0-1.99,1.54-3.19,3.4-3.19.17,0,.27,0,.46.01v5.71c1.55-.03,2.86-.97,2.86-2.59,0-1.14-.73-2.04-1.62-2.21v-.75c1.32.22,2.3,1.52,2.3,2.96,0,1.04-.45,1.88-.98,2.36ZM13.77,281.8c-1.33.03-2.58.88-2.58,2.44s1.21,2.49,2.58,2.51v-4.96Z"/><path d="M15.78,279.5c-1.25,0-2.02-.98-2.12-2.43l-.18-2.66h-.62c-1.18,0-1.68.88-1.68,1.99s.5,1.98,1.55,2.05v.72c-1.44-.1-2.21-1.3-2.21-2.75,0-1.65.78-2.75,2.4-2.75h3.46c.48,0,.76-.07.76-.56,0-.06,0-.14-.01-.2h.62c.03.1.04.23.04.35,0,.9-.66,1.14-1.4,1.14.99.39,1.54,1.49,1.54,2.6,0,1.4-.83,2.48-2.14,2.48ZM14.49,274.41h-.36l.15,2.59c.07,1.11.66,1.76,1.49,1.76.98,0,1.51-.78,1.51-1.81,0-1.82-1.43-2.54-2.79-2.54Z"/><path d="M10.73,270.97v-.66l1.34-.06c-.97-.38-1.54-1.5-1.54-2.51,0-1.65,1.06-2.56,2.62-2.56h4.58v.72h-4.51c-1.18,0-2,.62-2,1.91,0,1.6,1.29,2.44,2.84,2.44h3.67v.72h-7Z"/><path d="M10.73,259.17v-.67l1.33-.06c-.92-.41-1.53-1.47-1.53-2.47,0-.85.27-1.49.67-1.98.69-.84,1.76-1.21,3.01-1.21s2.27.36,2.97,1.14c.45.49.74,1.17.74,2.04,0,1.05-.58,2.08-1.47,2.49h4.06v.72h-9.79ZM16.61,254.35c-.6-.58-1.48-.82-2.38-.82-1,0-1.93.29-2.51.98-.31.36-.5.85-.5,1.49s.24,1.14.57,1.52c.62.67,1.47.95,2.44.95,1.04,0,1.85-.26,2.45-.94.34-.38.56-.88.56-1.56s-.24-1.24-.63-1.62Z"/><path d="M16.94,250.11c-.67.59-1.62.95-2.69.95-.88,0-1.75-.14-2.49-.72-.8-.62-1.23-1.47-1.23-2.53,0-1.99,1.54-3.19,3.4-3.19.17,0,.27,0,.46.02v5.71c1.55-.03,2.86-.97,2.86-2.59,0-1.14-.73-2.04-1.62-2.21v-.75c1.32.22,2.3,1.52,2.3,2.96,0,1.04-.45,1.88-.98,2.36ZM13.77,245.37c-1.33.03-2.58.88-2.58,2.44s1.21,2.49,2.58,2.52v-4.96Z"/><path d="M15.78,243.07c-1.25,0-2.02-.98-2.12-2.43l-.18-2.66h-.62c-1.18,0-1.68.88-1.68,1.99s.5,1.98,1.55,2.05v.72c-1.44-.1-2.21-1.3-2.21-2.75,0-1.65.78-2.75,2.4-2.75h3.46c.48,0,.76-.07.76-.56,0-.06,0-.14-.01-.2h.62c.03.1.04.23.04.35,0,.9-.66,1.14-1.4,1.14.99.39,1.54,1.49,1.54,2.6,0,1.4-.83,2.49-2.14,2.49ZM14.49,237.98h-.36l.15,2.59c.07,1.11.66,1.76,1.49,1.76.98,0,1.51-.78,1.51-1.81,0-1.82-1.43-2.54-2.79-2.54Z"/><path d="M7.59,234.54v-.74h7.4l-4.26-4.05v-.92l2.94,2.82,4.06-2.88v.9l-3.54,2.5,1.74,1.63h1.81v.74H7.59Z"/><path d="M7.59,222.99h4.43c-.9-.4-1.48-1.47-1.48-2.49,0-1.65,1.01-2.59,2.58-2.59h4.62v.72h-4.58c-1.23,0-1.96.61-1.96,1.91,0,1.76,1.53,2.44,3.04,2.44h3.5v.72H7.59v-.72Z"/><path d="M16.94,214.85c-.67.59-1.62.95-2.69.95-.88,0-1.75-.14-2.49-.72-.8-.62-1.23-1.47-1.23-2.53,0-1.99,1.54-3.19,3.4-3.19.17,0,.27,0,.46.01v5.71c1.55-.03,2.86-.97,2.86-2.59,0-1.14-.73-2.04-1.62-2.21v-.75c1.32.22,2.3,1.52,2.3,2.96,0,1.04-.45,1.88-.98,2.36ZM13.77,210.11c-1.33.03-2.58.88-2.58,2.44s1.21,2.49,2.58,2.51v-4.96Z"/><path d="M7.8,206.36h1.04v.98h-1.04v-.98ZM10.73,206.48h7v.74h-7v-.74Z"/><path d="M18.72,204.43c-.73,0-1.36-.49-1.57-1.27-.11.55-.57.95-1.09.95-.59,0-1.02-.42-1.23-1.01-.42.52-1.05.84-1.83.84-1.51,0-2.47-1.24-2.47-2.7,0-.65.18-1.24.49-1.73-.62-.17-.97-.77-.97-1.42,0-.09.01-.2.03-.28h.59c-.01.07-.01.19-.01.28,0,.52.28.9.76,1,.41-.36.94-.58,1.58-.58,1.51,0,2.42,1.23,2.42,2.73,0,.55-.11,1.05-.34,1.47.15.39.42.75.84.75.64,0,.73-.72.73-1.3v-1.49c0-1.11.18-1.81.63-2.3.32-.35.7-.55,1.29-.55,1.57,0,2.14,1.69,2.14,3.41s-.6,3.19-1.99,3.19ZM13,199.22c-1.16,0-1.85.88-1.85,2.01s.69,1.99,1.85,1.99,1.81-.87,1.81-1.99-.66-2.01-1.81-2.01ZM18.6,198.54c-1.01,0-1.29.94-1.29,2.07v1.94c.15.65.53,1.2,1.34,1.2,1.09,0,1.43-1.26,1.43-2.53,0-1.37-.34-2.67-1.48-2.67Z"/><path d="M7.59,195.28h4.43c-.9-.41-1.48-1.47-1.48-2.49,0-1.65,1.01-2.59,2.58-2.59h4.62v.72h-4.58c-1.23,0-1.96.61-1.96,1.91,0,1.76,1.53,2.44,3.04,2.44h3.5v.72H7.59v-.72Z"/><path d="M15.91,186.99h-4.54v1.71h-.64v-1.71h-1.93l-.17-.72h2.1v-2.27h.64v2.27h4.44c.77,0,1.36-.25,1.36-1.3,0-.39-.04-.69-.13-1.07h.62c.11.36.17.72.17,1.13,0,1.42-.8,1.96-1.92,1.96Z"/><path d="M13.21,179.03c-2.19,0-4.62-.82-6.32-2.38l.34-.45c1.76,1.42,3.68,2.15,5.98,2.15s4.22-.74,5.98-2.15l.34.45c-1.7,1.56-4.13,2.38-6.32,2.38Z"/><path d="M10.73,174.56v-.67l1.34-.06c-.97-.38-1.54-1.5-1.54-2.51,0-1.65,1.06-2.56,2.62-2.56h4.58v.72h-4.51c-1.18,0-2,.62-2,1.91,0,1.6,1.29,2.44,2.84,2.44h3.67v.72h-7Z"/><path d="M11.86,159.93h.62v6.45h-.62v-6.45ZM14.82,159.93h.62v6.45h-.62v-6.45Z"/><path d="M16.73,156.94c-.99.77-2.48.93-3.87.93-1.48,0-3.1-.2-4.12-1.19-.49-.48-.92-1.23-.92-2.27,0-1.69,1.01-2.9,2.54-2.99v.74c-1.12.1-1.86.87-1.86,2.25,0,2.24,2.34,2.7,4.65,2.7-1.02-.36-1.71-1.46-1.71-2.64,0-2.08,1.3-3.28,3.22-3.28,1.79,0,3.26,1.18,3.26,3.27,0,1.17-.58,2.01-1.19,2.48ZM14.66,151.92c-1.34,0-2.58.79-2.58,2.53,0,1.45,1.13,2.46,2.55,2.46s2.62-.87,2.62-2.47c0-1.73-1.23-2.51-2.59-2.51Z"/><path d="M14.86,149.53v-.74c1.23-.01,2.4-.81,2.4-2.53,0-1.53-.88-2.49-2.12-2.49-1.46,0-2.13,1.01-2.13,2.53v.56h-.67v-.56c0-1.37-.62-2.31-1.92-2.31-1.12,0-1.92,1.03-1.92,2.25,0,1.53.94,2.46,2.24,2.47v.74c-1.74-.03-2.91-1.36-2.91-3.21,0-1.68,1.05-2.99,2.59-2.99,1.05,0,1.96.59,2.26,1.75.29-1.26,1.3-1.98,2.46-1.98,1.61,0,2.79,1.4,2.79,3.24,0,2.04-1.3,3.22-3.07,3.27Z"/><path d="M19.19,142.07c-1.76-1.42-3.68-2.15-5.98-2.15s-4.22.74-5.98,2.15l-.34-.45c1.69-1.56,4.13-2.38,6.32-2.38s4.62.82,6.32,2.38l-.34.45Z"/><path d="M20.8,270.52h.7v5.79h3.71v-5.1h.7v5.1h4.12v-5.79h.7v6.56h-9.93v-6.56Z"/><path d="M23.73,268.45v-.67l1.44-.06c-.98-.32-1.51-1.3-1.51-2.33,0-.22,0-.46.07-.68h.67c-.06.23-.07.48-.07.71,0,1.68,1.34,2.3,2.9,2.3h3.5v.72h-7Z"/><path d="M23.73,262.98v-.67l1.44-.06c-.98-.32-1.51-1.3-1.51-2.33,0-.22,0-.46.07-.68h.67c-.06.23-.07.48-.07.71,0,1.68,1.34,2.3,2.9,2.3h3.5v.72h-7Z"/><path d="M30.1,257.21c-.74.79-1.67,1.1-2.87,1.1s-2.13-.3-2.87-1.1c-.48-.52-.83-1.24-.83-2.17s.35-1.65.83-2.17c.74-.79,1.68-1.1,2.87-1.1s2.13.3,2.87,1.1c.48.52.83,1.24.83,2.17s-.35,1.65-.83,2.17ZM29.62,253.38c-.64-.68-1.47-.87-2.4-.87s-1.75.19-2.4.87c-.38.39-.62.94-.62,1.66s.24,1.27.62,1.66c.64.68,1.48.87,2.4.87s1.75-.19,2.4-.87c.38-.39.62-.94.62-1.66s-.24-1.27-.62-1.66Z"/><path d="M23.73,249.57v-.66l1.44-.06c-.98-.32-1.51-1.3-1.51-2.33,0-.22,0-.46.07-.68h.67c-.06.23-.07.48-.07.71,0,1.68,1.34,2.3,2.9,2.3h3.5v.72h-7Z"/><path d="M29.36,240.34l1.37.06v.67h-10.14v-.72h4.52c-.97-.38-1.58-1.43-1.58-2.49,0-.87.28-1.55.73-2.04.7-.78,1.82-1.16,2.98-1.16s2.34.39,3.03,1.23c.41.49.66,1.13.66,1.98,0,1-.59,2.1-1.57,2.47ZM29.75,236.4c-.59-.68-1.51-.98-2.52-.98-.91,0-1.82.23-2.4.82-.38.39-.62.91-.62,1.62s.21,1.18.55,1.56c.6.68,1.43.94,2.47.94.97,0,1.85-.27,2.45-.95.34-.38.56-.87.56-1.52s-.18-1.13-.49-1.49Z"/><path d="M28.78,233.06c-1.25,0-2.02-.98-2.12-2.43l-.18-2.66h-.62c-1.18,0-1.68.88-1.68,1.99s.5,1.98,1.55,2.05v.72c-1.44-.1-2.21-1.3-2.21-2.75,0-1.65.78-2.75,2.4-2.75h3.46c.48,0,.76-.07.76-.56,0-.06,0-.14-.01-.2h.62c.03.1.04.23.04.35,0,.9-.66,1.14-1.4,1.14.99.39,1.54,1.49,1.54,2.6,0,1.4-.83,2.48-2.14,2.48ZM27.49,227.97h-.36l.15,2.59c.07,1.11.66,1.76,1.49,1.76.98,0,1.51-.78,1.51-1.81,0-1.82-1.43-2.54-2.79-2.54Z"/><path d="M23.73,224.53v-.67l1.44-.06c-.98-.32-1.51-1.3-1.51-2.33,0-.22,0-.46.07-.68h.67c-.06.23-.07.48-.07.71,0,1.68,1.34,2.3,2.9,2.3h3.5v.72h-7Z"/><path d="M28.6,219.84v-.74c1.15-.12,1.65-1.05,1.65-2.24s-.5-2.1-1.46-2.1c-.62,0-1.13.45-1.25,1.33l-.18,1.4c-.15,1.21-.71,2.04-1.78,2.04-1.25,0-2.06-1.24-2.06-2.6,0-1.56.87-2.69,2.13-2.73v.72c-1.01.1-1.47.95-1.47,2.01s.55,1.86,1.33,1.86c.57,0,1.01-.32,1.15-1.4l.18-1.37c.18-1.36,1.06-1.99,1.9-1.99,1.43,0,2.17,1.33,2.17,2.83,0,1.72-.88,2.9-2.33,2.98Z"/><path d="M24.86,202.34h.62v6.45h-.62v-6.45ZM27.82,202.34h.62v6.45h-.62v-6.45Z"/><path d="M23.73,196.47v-.67l1.44-.06c-.98-.32-1.51-1.3-1.51-2.33,0-.22,0-.46.07-.68h.67c-.06.23-.07.48-.07.71,0,1.68,1.34,2.3,2.9,2.3h3.5v.72h-7Z"/><path d="M28.78,191.96c-1.25,0-2.02-.98-2.12-2.43l-.18-2.66h-.62c-1.18,0-1.68.88-1.68,1.99s.5,1.98,1.55,2.05v.72c-1.44-.1-2.21-1.3-2.21-2.75,0-1.65.78-2.75,2.4-2.75h3.46c.48,0,.76-.07.76-.56,0-.06,0-.14-.01-.2h.62c.03.1.04.23.04.35,0,.9-.66,1.14-1.4,1.14.99.39,1.54,1.49,1.54,2.6,0,1.4-.83,2.49-2.14,2.49ZM27.49,186.87h-.36l.15,2.59c.07,1.11.66,1.76,1.49,1.76.98,0,1.51-.78,1.51-1.81,0-1.82-1.43-2.54-2.79-2.54Z"/><path d="M23.73,183.43v-.66l1.34-.06c-.97-.38-1.54-1.5-1.54-2.51,0-1.65,1.06-2.56,2.62-2.56h4.58v.72h-4.51c-1.18,0-2,.62-2,1.91,0,1.6,1.29,2.44,2.84,2.44h3.67v.72h-7Z"/><path d="M31.72,175.65c-.73,0-1.36-.49-1.57-1.27-.11.55-.57.95-1.09.95-.59,0-1.02-.42-1.23-1.01-.42.52-1.05.84-1.83.84-1.51,0-2.47-1.24-2.47-2.7,0-.65.18-1.24.49-1.73-.62-.17-.97-.77-.97-1.42,0-.09.01-.2.03-.28h.59c-.01.07-.01.19-.01.28,0,.52.28.9.76,1,.41-.36.94-.58,1.58-.58,1.51,0,2.42,1.23,2.42,2.73,0,.55-.11,1.05-.34,1.47.15.39.42.75.84.75.64,0,.73-.72.73-1.3v-1.49c0-1.11.18-1.81.63-2.3.32-.35.7-.55,1.29-.55,1.57,0,2.14,1.69,2.14,3.41s-.6,3.19-1.99,3.19ZM26,170.45c-1.16,0-1.85.88-1.85,2.01s.69,1.99,1.85,1.99,1.81-.87,1.81-1.99-.66-2.01-1.81-2.01ZM31.6,169.77c-1.01,0-1.29.94-1.29,2.07v1.94c.15.65.53,1.2,1.34,1.2,1.09,0,1.43-1.26,1.43-2.53,0-1.37-.34-2.67-1.48-2.67Z"/><path d="M29.94,166.86c-.67.59-1.62.95-2.69.95-.88,0-1.75-.14-2.49-.72-.8-.62-1.23-1.47-1.23-2.53,0-1.99,1.54-3.19,3.4-3.19.17,0,.27,0,.46.02v5.71c1.55-.03,2.86-.97,2.86-2.59,0-1.14-.73-2.04-1.62-2.21v-.75c1.32.22,2.3,1.52,2.3,2.96,0,1.04-.45,1.88-.98,2.36ZM26.77,162.12c-1.33.03-2.58.88-2.58,2.44s1.21,2.49,2.58,2.52v-4.96Z"/><rect class="cls-4" x="612.94" y="217.92" width="24.98" height="6.61"/></svg>