<svg xmlns="http://www.w3.org/2000/svg" width="168.992" height="45.371" viewBox="0 0 168.992 45.371">
  <g id="Group_4225" data-name="Group 4225" transform="translate(4.492 -200.197)">
    <g id="Group_5237" data-name="Group 5237" transform="translate(-4.492 200.197)">
      <g id="Group_5238" data-name="Group 5238" transform="translate(0 0)">
        <path id="Path_7043" data-name="Path 7043" d="M164.261,14.234a2.056,2.056,0,1,1-2.056-2.056,2.056,2.056,0,0,1,2.056,2.056" transform="translate(-87.235 -0.941)" fill="#06255b"/>
        <path id="Path_7044" data-name="Path 7044" d="M216.068,39.817l.07-.107a3.045,3.045,0,0,1,3.774-1.079,7.66,7.66,0,0,0,3.009.672c1.57,0,2.476-.665,2.476-1.721v-.06c0-1.238-1.691-1.66-3.563-2.235-2.355-.664-4.982-1.63-4.982-4.679v-.061c0-3.02,2.506-4.862,5.677-4.862a11.045,11.045,0,0,1,5.857,1.812l-.065.116a3.081,3.081,0,0,1-3.713,1.375,6.871,6.871,0,0,0-2.17-.4c-1.419,0-2.235.664-2.235,1.57v.06c0,1.177,1.721,1.66,3.594,2.265,2.324.724,4.952,1.781,4.952,4.65v.06c0,3.351-2.6,5.012-5.918,5.012a11.2,11.2,0,0,1-6.763-2.385" transform="translate(-117.695 -8.299)" fill="#06255b"/>
        <path id="Path_7045" data-name="Path 7045" d="M160.6,26.6h0a3.66,3.66,0,0,1,3.66,3.66V42.568a3.66,3.66,0,0,1-3.66-3.66Z" transform="translate(-87.483 -8.795)" fill="#06255b"/>
        <path id="Path_7046" data-name="Path 7046" d="M251.084,34.274v-.061a8.517,8.517,0,0,1,17.03-.061v.061a8.351,8.351,0,0,1-8.56,8.319,8.26,8.26,0,0,1-8.47-8.258m13.37,0v-.061a4.937,4.937,0,0,0-4.9-5.142,4.794,4.794,0,0,0-4.81,5.082v.061a4.923,4.923,0,0,0,4.87,5.112,4.792,4.792,0,0,0,4.84-5.051" transform="translate(-136.768 -8.397)" fill="#06255b"/>
        <path id="Path_7047" data-name="Path 7047" d="M296.148,26.226h.061a3.6,3.6,0,0,1,3.6,3.6c1-2.389,2.843-4.023,5.657-3.9v2.229A1.838,1.838,0,0,1,304,29.935c-1.676.373-4.19,1.684-4.19,6.183V42.2a3.661,3.661,0,0,1-3.661-3.661Z" transform="translate(-161.315 -8.425)" fill="#06255b"/>
        <path id="Path_7048" data-name="Path 7048" d="M339.683,26.2h1.21a2.45,2.45,0,0,1,2.45,2.45,5.789,5.789,0,0,1,4.991-2.783c3.6,0,5.687,2.42,5.687,6.11V42.169a3.66,3.66,0,0,1-3.66-3.66V33.095c0-2.48-1.24-3.9-3.418-3.9-2.118,0-3.6,1.482-3.6,3.963v9.014a3.661,3.661,0,0,1-3.66-3.661Z" transform="translate(-185.029 -8.397)" fill="#06255b"/>
        <path id="Path_7049" data-name="Path 7049" d="M118.283,15.168h-7.895v7.956a3.66,3.66,0,0,0,3.66,3.66V18.559l4.235,0c4.447,0,7.351,2.995,7.351,7.139v.061a6.948,6.948,0,0,1-7.351,7.2h-4.507a3.388,3.388,0,0,0-3.388,3.388h7.895c6.655,0,11.252-4.567,11.252-10.527v-.06c0-5.959-4.6-10.587-11.252-10.587" transform="translate(-60.13 -2.57)" fill="#06255b"/>
        <path id="Path_7050" data-name="Path 7050" d="M324.172,26.6h0a3.66,3.66,0,0,1,3.66,3.66V42.568a3.66,3.66,0,0,1-3.66-3.66Z" transform="translate(-176.58 -8.795)" fill="#06255b"/>
        <path id="Path_7051" data-name="Path 7051" d="M327.829,14.234a2.056,2.056,0,1,1-2.056-2.056,2.056,2.056,0,0,1,2.056,2.056" transform="translate(-176.332 -0.941)" fill="#06255b"/>
        <path id="Path_7052" data-name="Path 7052" d="M189.517,27.916a7.159,7.159,0,0,0-5.294-1.784,13.629,13.629,0,0,0-6.019,1.3,3.092,3.092,0,0,0,3.508,2.066,10.425,10.425,0,0,1,2.027-.19c2.571,0,3.963,1.21,3.963,3.479v.393a13.355,13.355,0,0,0-4.3-.665c-3.9,0-6.594,1.694-6.594,5.142v.061c0,3.207,2.662,4.931,5.656,4.931a6.929,6.929,0,0,0,3.215-.735,1.931,1.931,0,0,0-2-1.93l-.191,0c-1.754,0-3.115-.877-3.115-2.42v-.061c0-1.664,1.392-2.662,3.751-2.662a10.138,10.138,0,0,1,3.63.635v1.089c0,.068-.007.133-.011.2v2.941a2.606,2.606,0,0,0,2.607,2.607h.883V32.847a6.628,6.628,0,0,0-1.724-4.93" transform="translate(-96.312 -8.542)" fill="#06255b"/>
        <path id="Path_7053" data-name="Path 7053" d="M33.265,40.064l.082-.082c7.849-7.868,7.459-19.653-.93-28.022L20.574,0,9.341,9.944a5.454,5.454,0,0,0-1.1,7.465L20.769,6.524l8.483,8.625a16.551,16.551,0,0,1,5.2,11.766,13.073,13.073,0,0,1-4.432,9.491C24.053,41.9,15.6,41.469,9.469,35.347L6.985,32.87A5.5,5.5,0,0,0,0,32.248l6.295,6.28c8.545,8.524,19.384,9.14,26.97,1.536" fill="#567bc6"/>
        <path id="Path_7054" data-name="Path 7054" d="M50.48,30.521l-5.231-4.7,4.423,5.271c4.89,5.756,4.521,13.264-.878,17.851l-.057.048a11.319,11.319,0,0,1-5.44,2.62,10.441,10.441,0,0,0,8.72-3.712l.048-.054c4.578-5.156,3.911-12.441-1.585-17.322" transform="translate(-23.584 -14.064)" fill="#06255b"/>
      </g>
    </g>
  </g>
</svg>