<svg id="logo" xmlns="http://www.w3.org/2000/svg" width="130.5" height="32.5" viewBox="0 0 130.5 32.5">
  <defs>
    <style>
      .cls-1 {
        fill: #c51124;
      }

      .cls-1, .cls-2, .cls-3, .cls-4, .cls-5 {
        stroke: #fff;
        stroke-linejoin: round;
        stroke-width: 1px;
      }

      .cls-1, .cls-2, .cls-3, .cls-4, .cls-5, .cls-6 {
        fill-rule: evenodd;
      }

      .cls-2 {
        fill: #231c20;
      }

      .cls-3 {
        fill: #e5930a;
      }

      .cls-4 {
        fill: #6cb351;
      }

      .cls-5 {
        fill: #039bda;
      }

      .cls-6 {
        fill: #fff;
      }
    </style>
  </defs>
  <path id="形状_18" data-name="形状 18" class="cls-1" d="M375.612,82.907a10.543,10.543,0,0,1-3.186.582,6.127,6.127,0,0,1-4.986-1.936c-1.47-1.777-1.679-4.738-.6-8.564,1.894-6.718,6.3-10.729,11.789-10.729a7.339,7.339,0,0,1,2.533.392,2.821,2.821,0,0,1,.868.706,6.237,6.237,0,0,1,.436,1.373l0.993,0.006,2.476-2.7-0.3-.179A13.328,13.328,0,0,0,378.414,60c-7.085,0-15.347,3.946-17.833,12.761-1.086,3.856-.647,7.118,1.27,9.435s5.168,3.553,9.377,3.553a20.859,20.859,0,0,0,8.622-1.864l1.124-.578,0.837-5.8H380.5s-1.394,2.272-2.57,3.779a7.23,7.23,0,0,1-2.317,1.621" transform="translate(-357.5 -56)"/>
  <path id="形状_19" data-name="形状 19" class="cls-2" d="M381.37,85.749h6.072l0.632-2.1-0.939,0a0.362,0.362,0,0,1-.273-0.137,0.347,0.347,0,0,1,.03-0.332l0.064-.1,3.448-5.226,8.69-.012,0.572,5.209a0.723,0.723,0,0,1-.112.416,1.016,1.016,0,0,1-.668.189l-0.431.014-0.615,2.08h9.1l0.619-2.077-0.869-.015a0.963,0.963,0,0,1-.482-0.108,0.83,0.83,0,0,1-.16-0.439l-2.435-22.859h-4.768L383.7,83.073a1.46,1.46,0,0,1-.466.459,2.408,2.408,0,0,1-.9.13h-0.339Zm10.483-10.1,6.056-9.1,0.952,9.1h-7.008Z" transform="translate(-357.5 -56)"/>
  <path id="形状_20" data-name="形状 20" class="cls-3" d="M425.241,82.907a10.535,10.535,0,0,1-3.186.583,6.128,6.128,0,0,1-4.986-1.936c-1.47-1.777-1.678-4.738-.6-8.564,1.894-6.718,6.3-10.729,11.79-10.729a7.329,7.329,0,0,1,2.532.392,2.821,2.821,0,0,1,.869.706,6.274,6.274,0,0,1,.435,1.373l0.993,0.006,2.477-2.7-0.3-.179A13.331,13.331,0,0,0,428.043,60c-7.084,0-15.346,3.946-17.832,12.761-1.087,3.856-.648,7.118,1.27,9.435s5.167,3.553,9.377,3.553a20.862,20.862,0,0,0,8.621-1.864l1.124-.578,0.838-5.8h-1.313s-1.394,2.272-2.57,3.779a7.227,7.227,0,0,1-2.317,1.621" transform="translate(-357.5 -56)"/>
  <path id="形状_21" data-name="形状 21" class="cls-4" d="M436.728,74.18c-0.536,2-1.519,6.146-2,7.48-0.034.095-.063,0.177-0.094,0.241a1.643,1.643,0,0,1-1.6.759l-0.764,2.84h18.336l1.435-5.876h-2.256s-0.249.567-.624,1.382a3.444,3.444,0,0,1-1.956,1.514h-5.555a1.122,1.122,0,0,1-.838-0.511,1.639,1.639,0,0,1-.06-0.733l4.623-17.417a2.12,2.12,0,0,1,.463-0.91,1.245,1.245,0,0,1,.787-0.3l1.414-.006,0.647-2.391h-9.721l-0.646,2.4h0.213a0.951,0.951,0,0,1,.806.341,0.83,0.83,0,0,1,.136.748c-0.758,3.018-1.345,5.207-2.138,8.157Z" transform="translate(-357.5 -56)"/>
  <path id="形状_22" data-name="形状 22" class="cls-5" d="M477.029,63.393c-1.354-1.721-4.121-2.594-8.226-2.594H459.7l-0.633,2.368,0.515,0.015a0.926,0.926,0,0,1,.664.271,1.54,1.54,0,0,1,.139,1.106L455.43,82.818a1.234,1.234,0,0,1-.244.572,1.484,1.484,0,0,1-.751.388l-0.791.105L453.1,86h10.458l0.563-2.068-1.465-.163a1.722,1.722,0,0,1-1.135-.545,1.066,1.066,0,0,1-.03-0.935c0.531-2.085,1.112-4.121,1.618-5.983h1.168c9.826,0,12.611-4.846,13.4-7.734,0.583-2.147.365-3.889-.649-5.178m-10.409-.175h1.52c1.77,0,3.05.249,3.695,1.068,0.679,0.864.769,2.237,0.267,4.084-0.706,2.592-2.554,5.683-7.353,5.683l-1.04,0s2-7.616,2.911-10.837" transform="translate(-357.5 -56)"/>
  <path id="形状_502" data-name="形状 502" class="cls-6" d="M485,62a3,3,0,1,1,3-3,3,3,0,0,1-3,3m0-5.674A2.674,2.674,0,1,0,487.672,59,2.676,2.676,0,0,0,485,56.328m0.8,4.224-0.636-.981a1.055,1.055,0,0,1-.12.005h-0.7v0.976h-0.578V57.2h1.282a1.625,1.625,0,0,1,.705.143,1.054,1.054,0,0,1,.46.411,1.219,1.219,0,0,1,.16.637,1.2,1.2,0,0,1-.171.651,1.035,1.035,0,0,1-.492.407l0.716,1.1H485.8ZM485.59,57.9a0.843,0.843,0,0,0-.574-0.172H484.34v1.334h0.676a0.834,0.834,0,0,0,.574-0.174,0.627,0.627,0,0,0,.2-0.495,0.621,0.621,0,0,0-.2-0.493" transform="translate(-357.5 -56)"/>
</svg>
